<svg width="189" height="144" viewBox="0 0 189 144" fill="none" xmlns="http://www.w3.org/2000/svg">
<g filter="url(#filter0_d_159_4)">
<rect x="5.5" y="1.5" width="153.018" height="74.4136" rx="4.5" stroke="#519727" stroke-width="3" shape-rendering="crispEdges"/>
</g>
<line x1="90.7505" y1="42.8752" x2="90.7505" y2="67.8858" stroke="#519727" stroke-width="2"/>
<line x1="94.4189" y1="42.8752" x2="94.4189" y2="67.8858" stroke="#519727"/>
<line x1="97.1979" y1="42.8752" x2="97.1979" y2="67.8858" stroke="#519727"/>
<line x1="101.977" y1="42.8752" x2="101.977" y2="67.8858" stroke="#519727" stroke-width="5"/>
<line x1="108.314" y1="42.8752" x2="108.314" y2="67.8858" stroke="#519727"/>
<line x1="111.593" y1="42.8752" x2="111.593" y2="67.8858" stroke="#519727" stroke-width="2"/>
<line x1="115.261" y1="42.8752" x2="115.261" y2="67.8858" stroke="#519727"/>
<line x1="118.04" y1="42.8752" x2="118.04" y2="67.8858" stroke="#519727"/>
<line x1="120.819" y1="42.8752" x2="120.819" y2="67.8858" stroke="#519727"/>
<line x1="124.598" y1="42.8752" x2="124.598" y2="67.8858" stroke="#519727" stroke-width="3"/>
<line x1="129.156" y1="42.8752" x2="129.156" y2="67.8858" stroke="#519727"/>
<line x1="131.935" y1="42.8752" x2="131.935" y2="67.8858" stroke="#519727"/>
<path d="M148.108 42.8752V55.3805V67.8858" stroke="#519727" stroke-width="3"/>
<line x1="136.214" y1="42.8752" x2="136.214" y2="67.8858" stroke="#519727" stroke-width="4"/>
<line x1="141.661" y1="42.8752" x2="141.661" y2="67.8858" stroke="#519727"/>
<line x1="144.44" y1="42.8752" x2="144.44" y2="67.8858" stroke="#519727"/>
<circle cx="121.902" cy="55.9715" r="43.9436" stroke="#519727" stroke-width="5"/>
<path d="M179.997 135.4C181.765 137.521 184.917 137.808 187.039 136.04C189.16 134.272 189.447 131.119 187.679 128.998L179.997 135.4ZM144.267 92.5243L179.997 135.4L187.679 128.998L151.95 86.1225L144.267 92.5243Z" fill="#519727"/>
<path d="M21.64 114.768C21.64 114.072 21.796 113.472 22.108 112.968C22.444 112.44 22.936 112.176 23.584 112.176C24.136 112.176 24.628 112.284 25.06 112.5C25.492 112.716 25.708 113.076 25.708 113.58C25.708 114.564 25.66 115.944 25.564 117.72C25.468 119.448 25.42 120.732 25.42 121.572C25.42 122.892 25.468 124.656 25.564 126.864C25.66 128.976 25.708 130.524 25.708 131.508C25.708 132.3 25.696 132.888 25.672 133.272C25.672 133.656 25.456 134.04 25.024 134.424C24.616 134.784 23.98 134.964 23.116 134.964C22.66 134.964 22.264 134.892 21.928 134.748C21.616 134.58 21.4 134.4 21.28 134.208C20.152 132.84 18.508 130.512 16.348 127.224C13.924 123.552 11.944 120.744 10.408 118.8C10.6 120.528 10.696 122.64 10.696 125.136C10.696 126.24 10.672 127.68 10.624 129.456C10.6 131.208 10.552 132.36 10.48 132.912C10.384 133.608 10.168 134.148 9.832 134.532C9.52 134.892 9.016 135.072 8.32 135.072C7.792 135.072 7.396 134.928 7.132 134.64C6.892 134.328 6.748 133.8 6.7 133.056C6.676 132.072 6.736 130.596 6.88 128.628C6.904 128.316 6.94 127.776 6.988 127.008C7.036 126.24 7.06 125.556 7.06 124.956C7.06 123.3 6.976 121.404 6.808 119.268C6.664 116.916 6.592 115.176 6.592 114.048C6.592 113.472 6.796 113.028 7.204 112.716C7.636 112.404 8.128 112.248 8.68 112.248C9.16 112.248 9.664 112.368 10.192 112.608C12.256 115.2 15.052 119.064 18.58 124.2L21.964 129.384C21.988 129 22 128.46 22 127.764C22 126.54 21.976 125.22 21.928 123.804C21.88 122.388 21.844 121.428 21.82 120.924C21.7 118.596 21.64 116.544 21.64 114.768ZM34.665 114.12C34.665 114.816 34.641 115.74 34.593 116.892L34.557 119.232C34.557 121.512 34.725 123.42 35.061 124.956C35.541 127.116 36.261 128.784 37.221 129.96C38.109 130.992 39.201 131.508 40.497 131.508C41.505 131.508 42.405 131.208 43.197 130.608C43.989 129.984 44.601 129.216 45.033 128.304C45.753 126.816 46.113 124.98 46.113 122.796C46.113 121.476 46.029 119.916 45.861 118.116C45.717 116.1 45.645 114.588 45.645 113.58C45.645 113.052 45.957 112.716 46.581 112.572C47.205 112.404 47.853 112.32 48.525 112.32C48.765 112.32 49.041 112.476 49.353 112.788C49.665 113.1 49.821 113.436 49.821 113.796C49.821 114.516 49.785 115.2 49.713 115.848C49.665 116.568 49.641 117.072 49.641 117.36C49.641 118.272 49.689 119.544 49.785 121.176C49.809 121.584 49.833 122.076 49.857 122.652C49.881 123.228 49.893 123.888 49.893 124.632C49.893 126.264 49.497 127.896 48.705 129.528C47.937 131.136 46.857 132.468 45.465 133.524C44.073 134.556 42.501 135.072 40.749 135.072C38.061 135.072 35.961 134.208 34.449 132.48C32.937 130.728 31.905 128.472 31.353 125.712C31.041 124.128 30.837 122.472 30.741 120.744C30.669 119.016 30.633 116.7 30.633 113.796C30.633 113.412 30.813 113.052 31.173 112.716C31.557 112.38 31.965 112.212 32.397 112.212C33.909 112.212 34.665 112.848 34.665 114.12ZM55.0801 133.308C55.0801 132.516 55.1281 131.64 55.2241 130.68C55.3201 129.576 55.3681 128.184 55.3681 126.504C55.3681 123.432 55.2361 120.468 54.9721 117.612C54.8281 115.836 54.7561 114.576 54.7561 113.832C54.7561 113.328 55.0081 112.908 55.5121 112.572C56.0161 112.212 56.5321 112.032 57.0601 112.032C57.3961 112.032 57.8041 112.056 58.2841 112.104C58.7641 112.152 59.1121 112.176 59.3281 112.176C64.7281 112.176 68.7001 113.628 71.2441 116.532C72.8521 118.404 73.6561 120.888 73.6561 123.984C73.6561 125.28 73.4161 126.588 72.9361 127.908C72.4801 129.204 71.8201 130.26 70.9561 131.076C70.0201 131.988 69.1321 132.72 68.2921 133.272C67.4761 133.8 66.3601 134.244 64.9441 134.604C63.5521 134.964 61.7641 135.144 59.5801 135.144C58.1881 135.144 57.0841 134.988 56.2681 134.676C55.4761 134.364 55.0801 133.908 55.0801 133.308ZM60.9481 131.868C62.5561 131.868 64.0321 131.58 65.3761 131.004C66.7201 130.404 67.8001 129.516 68.6161 128.34C69.4321 127.14 69.8401 125.676 69.8401 123.948C69.8401 122.244 69.6001 120.828 69.1201 119.7C68.6401 118.548 67.8121 117.612 66.6361 116.892C65.7481 116.34 64.6561 115.944 63.3601 115.704C62.0641 115.44 60.5041 115.308 58.6801 115.308C58.6801 115.548 58.7041 116.1 58.7521 116.964C58.8001 117.78 58.8241 118.464 58.8241 119.016L58.8601 119.808C59.0041 122.304 59.0761 124.284 59.0761 125.748C59.0761 128.052 58.9441 130.044 58.6801 131.724C59.2561 131.82 60.0121 131.868 60.9481 131.868ZM79.6253 135.108C78.9053 135.108 78.4013 134.892 78.1133 134.46C77.8493 134.028 77.7173 133.416 77.7173 132.624L77.7533 127.944L77.7173 127.224C77.5973 124.944 77.5373 123.06 77.5373 121.572L77.6813 117.288L77.7173 115.128C77.7173 114.408 77.7413 113.856 77.7893 113.472C77.8373 113.088 77.9933 112.776 78.2573 112.536C78.5213 112.296 78.9413 112.176 79.5173 112.176C80.2373 112.176 80.7533 112.356 81.0653 112.716C81.3773 113.052 81.5333 113.64 81.5333 114.48L81.4973 115.236C81.4013 117.156 81.3533 118.608 81.3533 119.592C81.3533 120.672 81.3773 121.944 81.4253 123.408C81.4733 124.848 81.5093 125.868 81.5333 126.468C81.6533 129.036 81.7133 131.244 81.7133 133.092C81.7133 133.812 81.5573 134.328 81.2453 134.64C80.9573 134.952 80.4173 135.108 79.6253 135.108ZM103.305 134.46C102.993 134.052 102.741 133.668 102.549 133.308C102.381 132.924 102.165 132.396 101.901 131.724C101.469 130.644 101.085 129.852 100.749 129.348C99.2849 129.564 98.0129 129.672 96.9329 129.672C96.4049 129.672 95.8049 129.66 95.1329 129.636C94.4849 129.612 93.9809 129.588 93.6209 129.564C92.3729 129.468 91.3769 129.42 90.6329 129.42C90.3209 129.804 90.0689 130.212 89.8769 130.644C89.7089 131.052 89.5169 131.568 89.3009 132.192C88.9409 133.248 88.5929 134.052 88.2569 134.604C88.0409 134.964 87.6209 135.144 86.9969 135.144C86.4689 135.144 85.9769 135.036 85.5209 134.82C85.0889 134.58 84.8729 134.256 84.8729 133.848C85.0649 132.936 85.3649 131.976 85.7729 130.968C86.2049 129.936 86.8169 128.568 87.6089 126.864L89.0489 123.336C89.8409 121.32 90.5609 119.592 91.2089 118.152C91.8809 116.712 92.7569 115.008 93.8369 113.04C93.9809 112.752 94.2209 112.512 94.5569 112.32C94.8929 112.104 95.2649 111.996 95.6729 111.996C96.1289 111.996 96.4529 112.032 96.6449 112.104C96.8609 112.152 97.0289 112.248 97.1489 112.392C97.2689 112.512 97.4489 112.776 97.6889 113.184C98.5049 114.456 99.2009 115.764 99.7769 117.108C100.377 118.452 101.133 120.312 102.045 122.688L102.801 124.596C103.473 126.324 104.049 127.776 104.529 128.952C105.033 130.104 105.585 131.16 106.185 132.12C106.569 132.744 106.761 133.176 106.761 133.416C106.761 133.992 106.581 134.436 106.221 134.748C105.885 135.036 105.441 135.18 104.889 135.18C104.193 135.18 103.665 134.94 103.305 134.46ZM99.7049 126.396C99.3689 125.7 98.9249 124.5 98.3729 122.796C98.1809 122.172 98.0369 121.74 97.9409 121.5C97.1969 119.34 96.4529 117.624 95.7089 116.352C95.2529 117.504 94.5809 118.992 93.6929 120.816C93.1409 121.848 92.3849 123.696 91.4249 126.36C92.9609 126.552 94.7009 126.648 96.6449 126.648C97.9889 126.648 99.0089 126.564 99.7049 126.396Z" fill="#519727"/>
<defs>
<filter id="filter0_d_159_4" x="0" y="0" width="164.018" height="85.4136" filterUnits="userSpaceOnUse" color-interpolation-filters="sRGB">
<feFlood flood-opacity="0" result="BackgroundImageFix"/>
<feColorMatrix in="SourceAlpha" type="matrix" values="0 0 0 0 0 0 0 0 0 0 0 0 0 0 0 0 0 0 127 0" result="hardAlpha"/>
<feOffset dy="4"/>
<feGaussianBlur stdDeviation="2"/>
<feComposite in2="hardAlpha" operator="out"/>
<feColorMatrix type="matrix" values="0 0 0 0 0 0 0 0 0 0 0 0 0 0 0 0 0 0 0.25 0"/>
<feBlend mode="normal" in2="BackgroundImageFix" result="effect1_dropShadow_159_4"/>
<feBlend mode="normal" in="SourceGraphic" in2="effect1_dropShadow_159_4" result="shape"/>
</filter>
</defs>
</svg>
