<svg width="57" height="14" viewBox="0 0 57 14" fill="none" xmlns="http://www.w3.org/2000/svg">
<path d="M8.8 1.76C8.8 1.37333 8.88667 1.04 9.06 0.759999C9.24667 0.466666 9.52 0.32 9.88 0.32C10.1867 0.32 10.46 0.38 10.7 0.5C10.94 0.619999 11.06 0.819999 11.06 1.1C11.06 1.64667 11.0333 2.41333 10.98 3.4C10.9267 4.36 10.9 5.07333 10.9 5.54C10.9 6.27333 10.9267 7.25333 10.98 8.48C11.0333 9.65333 11.06 10.5133 11.06 11.06C11.06 11.5 11.0533 11.8267 11.04 12.04C11.04 12.2533 10.92 12.4667 10.68 12.68C10.4533 12.88 10.1 12.98 9.62 12.98C9.36667 12.98 9.14667 12.94 8.96 12.86C8.78667 12.7667 8.66667 12.6667 8.6 12.56C7.97333 11.8 7.06 10.5067 5.86 8.68C4.51333 6.64 3.41333 5.08 2.56 4C2.66667 4.96 2.72 6.13333 2.72 7.52C2.72 8.13333 2.70667 8.93333 2.68 9.92C2.66667 10.8933 2.64 11.5333 2.6 11.84C2.54667 12.2267 2.42667 12.5267 2.24 12.74C2.06667 12.94 1.78667 13.04 1.4 13.04C1.10667 13.04 0.886667 12.96 0.74 12.8C0.606667 12.6267 0.526667 12.3333 0.5 11.92C0.486667 11.3733 0.52 10.5533 0.6 9.46C0.613333 9.28667 0.633333 8.98667 0.66 8.56C0.686667 8.13333 0.7 7.75333 0.7 7.42C0.7 6.5 0.653333 5.44667 0.56 4.26C0.48 2.95333 0.44 1.98667 0.44 1.36C0.44 1.04 0.553333 0.793333 0.78 0.62C1.02 0.446666 1.29333 0.359999 1.6 0.359999C1.86667 0.359999 2.14667 0.426666 2.44 0.559999C3.58667 2 5.14 4.14667 7.1 7L8.98 9.88C8.99333 9.66667 9 9.36667 9 8.98C9 8.3 8.98667 7.56667 8.96 6.78C8.93333 5.99333 8.91333 5.46 8.9 5.18C8.83333 3.88667 8.8 2.74667 8.8 1.76ZM16.0361 1.4C16.0361 1.78667 16.0228 2.3 15.9961 2.94L15.9761 4.24C15.9761 5.50667 16.0694 6.56667 16.2561 7.42C16.5228 8.62 16.9228 9.54667 17.4561 10.2C17.9494 10.7733 18.5561 11.06 19.2761 11.06C19.8361 11.06 20.3361 10.8933 20.7761 10.56C21.2161 10.2133 21.5561 9.78667 21.7961 9.28C22.1961 8.45333 22.3961 7.43333 22.3961 6.22C22.3961 5.48667 22.3494 4.62 22.2561 3.62C22.1761 2.5 22.1361 1.66 22.1361 1.1C22.1361 0.806666 22.3094 0.619999 22.6561 0.539999C23.0028 0.446666 23.3628 0.399999 23.7361 0.399999C23.8694 0.399999 24.0228 0.486666 24.1961 0.659999C24.3694 0.833333 24.4561 1.02 24.4561 1.22C24.4561 1.62 24.4361 2 24.3961 2.36C24.3694 2.76 24.3561 3.04 24.3561 3.2C24.3561 3.70667 24.3828 4.41333 24.4361 5.32C24.4494 5.54667 24.4628 5.82 24.4761 6.14C24.4894 6.46 24.4961 6.82667 24.4961 7.24C24.4961 8.14667 24.2761 9.05333 23.8361 9.96C23.4094 10.8533 22.8094 11.5933 22.0361 12.18C21.2628 12.7533 20.3894 13.04 19.4161 13.04C17.9228 13.04 16.7561 12.56 15.9161 11.6C15.0761 10.6267 14.5028 9.37333 14.1961 7.84C14.0228 6.96 13.9094 6.04 13.8561 5.08C13.8161 4.12 13.7961 2.83333 13.7961 1.22C13.7961 1.00667 13.8961 0.806666 14.0961 0.62C14.3094 0.433333 14.5361 0.34 14.7761 0.34C15.6161 0.34 16.0361 0.693333 16.0361 1.4ZM27.3778 12.06C27.3778 11.62 27.4045 11.1333 27.4578 10.6C27.5111 9.98667 27.5378 9.21333 27.5378 8.28C27.5378 6.57333 27.4645 4.92667 27.3178 3.34C27.2378 2.35333 27.1978 1.65333 27.1978 1.24C27.1978 0.96 27.3378 0.726666 27.6178 0.539999C27.8978 0.34 28.1845 0.24 28.4778 0.24C28.6645 0.24 28.8911 0.253333 29.1578 0.279999C29.4245 0.306666 29.6178 0.32 29.7378 0.32C32.7378 0.32 34.9445 1.12667 36.3578 2.74C37.2511 3.78 37.6978 5.16 37.6978 6.88C37.6978 7.6 37.5645 8.32667 37.2978 9.06C37.0445 9.78 36.6778 10.3667 36.1978 10.82C35.6778 11.3267 35.1845 11.7333 34.7178 12.04C34.2645 12.3333 33.6445 12.58 32.8578 12.78C32.0845 12.98 31.0911 13.08 29.8778 13.08C29.1045 13.08 28.4911 12.9933 28.0378 12.82C27.5978 12.6467 27.3778 12.3933 27.3778 12.06ZM30.6378 11.26C31.5311 11.26 32.3511 11.1 33.0978 10.78C33.8445 10.4467 34.4445 9.95333 34.8978 9.3C35.3511 8.63333 35.5778 7.82 35.5778 6.86C35.5778 5.91333 35.4445 5.12667 35.1778 4.5C34.9111 3.86 34.4511 3.34 33.7978 2.94C33.3045 2.63333 32.6978 2.41333 31.9778 2.28C31.2578 2.13333 30.3911 2.06 29.3778 2.06C29.3778 2.19333 29.3911 2.5 29.4178 2.98C29.4445 3.43333 29.4578 3.81333 29.4578 4.12L29.4778 4.56C29.5578 5.94667 29.5978 7.04667 29.5978 7.86C29.5978 9.14 29.5245 10.2467 29.3778 11.18C29.6978 11.2333 30.1178 11.26 30.6378 11.26ZM41.0141 13.06C40.6141 13.06 40.3341 12.94 40.1741 12.7C40.0274 12.46 39.9541 12.12 39.9541 11.68L39.9741 9.08L39.9541 8.68C39.8874 7.41333 39.8541 6.36667 39.8541 5.54L39.9341 3.16L39.9541 1.96C39.9541 1.56 39.9674 1.25333 39.9941 1.04C40.0207 0.826666 40.1074 0.653333 40.2541 0.52C40.4007 0.386667 40.6341 0.32 40.9541 0.32C41.3541 0.32 41.6407 0.42 41.8141 0.62C41.9874 0.806666 42.0741 1.13333 42.0741 1.6L42.0541 2.02C42.0007 3.08667 41.9741 3.89333 41.9741 4.44C41.9741 5.04 41.9874 5.74667 42.0141 6.56C42.0407 7.36 42.0607 7.92667 42.0741 8.26C42.1407 9.68667 42.1741 10.9133 42.1741 11.94C42.1741 12.34 42.0874 12.6267 41.9141 12.8C41.7541 12.9733 41.4541 13.06 41.0141 13.06ZM54.1694 12.7C53.996 12.4733 53.856 12.26 53.7494 12.06C53.656 11.8467 53.536 11.5533 53.3894 11.18C53.1494 10.58 52.936 10.14 52.7494 9.86C51.936 9.98 51.2294 10.04 50.6294 10.04C50.336 10.04 50.0027 10.0333 49.6294 10.02C49.2694 10.0067 48.9894 9.99333 48.7894 9.98C48.096 9.92667 47.5427 9.9 47.1294 9.9C46.956 10.1133 46.816 10.34 46.7094 10.58C46.616 10.8067 46.5094 11.0933 46.3894 11.44C46.1894 12.0267 45.996 12.4733 45.8094 12.78C45.6894 12.98 45.456 13.08 45.1094 13.08C44.816 13.08 44.5427 13.02 44.2894 12.9C44.0494 12.7667 43.9294 12.5867 43.9294 12.36C44.036 11.8533 44.2027 11.32 44.4294 10.76C44.6694 10.1867 45.0094 9.42667 45.4494 8.48L46.2494 6.52C46.6894 5.4 47.0894 4.44 47.4494 3.64C47.8227 2.84 48.3094 1.89333 48.9094 0.8C48.9894 0.639999 49.1227 0.506666 49.3094 0.399999C49.496 0.279999 49.7027 0.219999 49.9294 0.219999C50.1827 0.219999 50.3627 0.239999 50.4694 0.279999C50.5894 0.306666 50.6827 0.36 50.7494 0.44C50.816 0.506666 50.916 0.653333 51.0494 0.88C51.5027 1.58667 51.8894 2.31333 52.2094 3.06C52.5427 3.80667 52.9627 4.84 53.4694 6.16L53.8894 7.22C54.2627 8.18 54.5827 8.98667 54.8494 9.64C55.1294 10.28 55.436 10.8667 55.7694 11.4C55.9827 11.7467 56.0894 11.9867 56.0894 12.12C56.0894 12.44 55.9894 12.6867 55.7894 12.86C55.6027 13.02 55.356 13.1 55.0494 13.1C54.6627 13.1 54.3694 12.9667 54.1694 12.7ZM52.1694 8.22C51.9827 7.83333 51.736 7.16667 51.4294 6.22C51.3227 5.87333 51.2427 5.63333 51.1894 5.5C50.776 4.3 50.3627 3.34667 49.9494 2.64C49.696 3.28 49.3227 4.10667 48.8294 5.12C48.5227 5.69333 48.1027 6.72 47.5694 8.2C48.4227 8.30667 49.3894 8.36 50.4694 8.36C51.216 8.36 51.7827 8.31333 52.1694 8.22Z" fill="white"/>
</svg>
