<svg width="130" height="100" viewBox="0 0 130 100" fill="none" xmlns="http://www.w3.org/2000/svg">
<path d="M15.76 80.512C15.76 80.048 15.864 79.648 16.072 79.312C16.296 78.96 16.624 78.784 17.056 78.784C17.424 78.784 17.752 78.856 18.04 79C18.328 79.144 18.472 79.384 18.472 79.72C18.472 80.376 18.44 81.296 18.376 82.48C18.312 83.632 18.28 84.488 18.28 85.048C18.28 85.928 18.312 87.104 18.376 88.576C18.44 89.984 18.472 91.016 18.472 91.672C18.472 92.2 18.464 92.592 18.448 92.848C18.448 93.104 18.304 93.36 18.016 93.616C17.744 93.856 17.32 93.976 16.744 93.976C16.44 93.976 16.176 93.928 15.952 93.832C15.744 93.72 15.6 93.6 15.52 93.472C14.768 92.56 13.672 91.008 12.232 88.816C10.616 86.368 9.296 84.496 8.272 83.2C8.4 84.352 8.464 85.76 8.464 87.424C8.464 88.16 8.448 89.12 8.416 90.304C8.4 91.472 8.368 92.24 8.32 92.608C8.256 93.072 8.112 93.432 7.888 93.688C7.68 93.928 7.344 94.048 6.88 94.048C6.528 94.048 6.264 93.952 6.088 93.76C5.928 93.552 5.832 93.2 5.8 92.704C5.784 92.048 5.824 91.064 5.92 89.752C5.936 89.544 5.96 89.184 5.992 88.672C6.024 88.16 6.04 87.704 6.04 87.304C6.04 86.2 5.984 84.936 5.872 83.512C5.776 81.944 5.728 80.784 5.728 80.032C5.728 79.648 5.864 79.352 6.136 79.144C6.424 78.936 6.752 78.832 7.12 78.832C7.44 78.832 7.776 78.912 8.128 79.072C9.504 80.8 11.368 83.376 13.72 86.8L15.976 90.256C15.992 90 16 89.64 16 89.176C16 88.36 15.984 87.48 15.952 86.536C15.92 85.592 15.896 84.952 15.88 84.616C15.8 83.064 15.76 81.696 15.76 80.512ZM24.4433 80.08C24.4433 80.544 24.4273 81.16 24.3953 81.928L24.3713 83.488C24.3713 85.008 24.4833 86.28 24.7073 87.304C25.0273 88.744 25.5073 89.856 26.1473 90.64C26.7393 91.328 27.4673 91.672 28.3313 91.672C29.0033 91.672 29.6033 91.472 30.1313 91.072C30.6593 90.656 31.0673 90.144 31.3553 89.536C31.8353 88.544 32.0753 87.32 32.0753 85.864C32.0753 84.984 32.0193 83.944 31.9073 82.744C31.8113 81.4 31.7633 80.392 31.7633 79.72C31.7633 79.368 31.9713 79.144 32.3873 79.048C32.8033 78.936 33.2353 78.88 33.6833 78.88C33.8433 78.88 34.0273 78.984 34.2353 79.192C34.4433 79.4 34.5473 79.624 34.5473 79.864C34.5473 80.344 34.5233 80.8 34.4753 81.232C34.4433 81.712 34.4273 82.048 34.4273 82.24C34.4273 82.848 34.4593 83.696 34.5233 84.784C34.5393 85.056 34.5553 85.384 34.5713 85.768C34.5873 86.152 34.5953 86.592 34.5953 87.088C34.5953 88.176 34.3313 89.264 33.8033 90.352C33.2913 91.424 32.5713 92.312 31.6433 93.016C30.7153 93.704 29.6673 94.048 28.4993 94.048C26.7073 94.048 25.3073 93.472 24.2993 92.32C23.2913 91.152 22.6033 89.648 22.2353 87.808C22.0273 86.752 21.8913 85.648 21.8273 84.496C21.7793 83.344 21.7553 81.8 21.7553 79.864C21.7553 79.608 21.8753 79.368 22.1153 79.144C22.3713 78.92 22.6433 78.808 22.9313 78.808C23.9393 78.808 24.4433 79.232 24.4433 80.08ZM38.0534 92.872C38.0534 92.344 38.0854 91.76 38.1494 91.12C38.2134 90.384 38.2454 89.456 38.2454 88.336C38.2454 86.288 38.1574 84.312 37.9814 82.408C37.8854 81.224 37.8374 80.384 37.8374 79.888C37.8374 79.552 38.0054 79.272 38.3414 79.048C38.6774 78.808 39.0214 78.688 39.3734 78.688C39.5974 78.688 39.8694 78.704 40.1894 78.736C40.5094 78.768 40.7414 78.784 40.8854 78.784C44.4854 78.784 47.1334 79.752 48.8294 81.688C49.9014 82.936 50.4374 84.592 50.4374 86.656C50.4374 87.52 50.2774 88.392 49.9574 89.272C49.6534 90.136 49.2134 90.84 48.6374 91.384C48.0134 91.992 47.4214 92.48 46.8614 92.848C46.3174 93.2 45.5734 93.496 44.6294 93.736C43.7014 93.976 42.5094 94.096 41.0534 94.096C40.1254 94.096 39.3894 93.992 38.8454 93.784C38.3174 93.576 38.0534 93.272 38.0534 92.872ZM41.9654 91.912C43.0374 91.912 44.0214 91.72 44.9174 91.336C45.8134 90.936 46.5334 90.344 47.0774 89.56C47.6214 88.76 47.8934 87.784 47.8934 86.632C47.8934 85.496 47.7334 84.552 47.4134 83.8C47.0934 83.032 46.5414 82.408 45.7574 81.928C45.1654 81.56 44.4374 81.296 43.5734 81.136C42.7094 80.96 41.6694 80.872 40.4534 80.872C40.4534 81.032 40.4694 81.4 40.5014 81.976C40.5334 82.52 40.5494 82.976 40.5494 83.344L40.5734 83.872C40.6694 85.536 40.7174 86.856 40.7174 87.832C40.7174 89.368 40.6294 90.696 40.4534 91.816C40.8374 91.88 41.3414 91.912 41.9654 91.912ZM54.4169 94.072C53.9369 94.072 53.6009 93.928 53.4089 93.64C53.2329 93.352 53.1449 92.944 53.1449 92.416L53.1689 89.296L53.1449 88.816C53.0649 87.296 53.0249 86.04 53.0249 85.048L53.1209 82.192L53.1449 80.752C53.1449 80.272 53.1609 79.904 53.1929 79.648C53.2249 79.392 53.3289 79.184 53.5049 79.024C53.6809 78.864 53.9609 78.784 54.3449 78.784C54.8249 78.784 55.1689 78.904 55.3769 79.144C55.5849 79.368 55.6889 79.76 55.6889 80.32L55.6649 80.824C55.6009 82.104 55.5689 83.072 55.5689 83.728C55.5689 84.448 55.5849 85.296 55.6169 86.272C55.6489 87.232 55.6729 87.912 55.6889 88.312C55.7689 90.024 55.8089 91.496 55.8089 92.728C55.8089 93.208 55.7049 93.552 55.4969 93.76C55.3049 93.968 54.9449 94.072 54.4169 94.072ZM70.2032 93.64C69.9953 93.368 69.8273 93.112 69.6993 92.872C69.5873 92.616 69.4433 92.264 69.2673 91.816C68.9793 91.096 68.7233 90.568 68.4993 90.232C67.5233 90.376 66.6753 90.448 65.9553 90.448C65.6033 90.448 65.2033 90.44 64.7553 90.424C64.3233 90.408 63.9873 90.392 63.7473 90.376C62.9153 90.312 62.2513 90.28 61.7553 90.28C61.5473 90.536 61.3793 90.808 61.2513 91.096C61.1393 91.368 61.0113 91.712 60.8673 92.128C60.6273 92.832 60.3953 93.368 60.1713 93.736C60.0273 93.976 59.7473 94.096 59.3313 94.096C58.9793 94.096 58.6513 94.024 58.3473 93.88C58.0593 93.72 57.9153 93.504 57.9153 93.232C58.0433 92.624 58.2433 91.984 58.5153 91.312C58.8033 90.624 59.2113 89.712 59.7393 88.576L60.6992 86.224C61.2273 84.88 61.7073 83.728 62.1393 82.768C62.5873 81.808 63.1713 80.672 63.8913 79.36C63.9873 79.168 64.1473 79.008 64.3713 78.88C64.5953 78.736 64.8433 78.664 65.1153 78.664C65.4193 78.664 65.6353 78.688 65.7633 78.736C65.9073 78.768 66.0193 78.832 66.0993 78.928C66.1793 79.008 66.2993 79.184 66.4593 79.456C67.0033 80.304 67.4673 81.176 67.8513 82.072C68.2513 82.968 68.7553 84.208 69.3633 85.792L69.8672 87.064C70.3153 88.216 70.6993 89.184 71.0193 89.968C71.3553 90.736 71.7233 91.44 72.1233 92.08C72.3793 92.496 72.5073 92.784 72.5073 92.944C72.5073 93.328 72.3873 93.624 72.1473 93.832C71.9233 94.024 71.6273 94.12 71.2593 94.12C70.7953 94.12 70.4433 93.96 70.2032 93.64ZM67.8033 88.264C67.5793 87.8 67.2833 87 66.9153 85.864C66.7873 85.448 66.6913 85.16 66.6273 85C66.1313 83.56 65.6353 82.416 65.1393 81.568C64.8353 82.336 64.3873 83.328 63.7953 84.544C63.4273 85.232 62.9233 86.464 62.2833 88.24C63.3073 88.368 64.4673 88.432 65.7633 88.432C66.6593 88.432 67.3393 88.376 67.8033 88.264Z" fill="white"/>
<g filter="url(#filter0_d_163_30)">
<rect x="5.5" y="1.5" width="101.974" height="49.0861" rx="4.5" stroke="white" stroke-width="3" shape-rendering="crispEdges"/>
</g>
<line x1="62.6954" y1="28.8477" x2="62.6954" y2="45.6755" stroke="white" stroke-width="2"/>
<line x1="65" y1="28.8477" x2="65" y2="45.6755" stroke="white"/>
<line x1="66.8698" y1="28.8477" x2="66.8698" y2="45.6755" stroke="white"/>
<line x1="70.7395" y1="28.8477" x2="70.7395" y2="45.6755" stroke="white" stroke-width="5"/>
<line x1="74.3488" y1="28.8477" x2="74.3488" y2="45.6755" stroke="white"/>
<line x1="76.7186" y1="28.8477" x2="76.7186" y2="45.6755" stroke="white" stroke-width="2"/>
<line x1="79.0232" y1="28.8477" x2="79.0232" y2="45.6755" stroke="white"/>
<line x1="80.8929" y1="28.8477" x2="80.8929" y2="45.6755" stroke="white"/>
<line x1="82.7627" y1="28.8477" x2="82.7627" y2="45.6755" stroke="white"/>
<line x1="85.6324" y1="28.8477" x2="85.6324" y2="45.6755" stroke="white" stroke-width="3"/>
<line x1="88.3719" y1="28.8477" x2="88.3719" y2="45.6755" stroke="white"/>
<line x1="90.2417" y1="28.8477" x2="90.2417" y2="45.6755" stroke="white"/>
<path d="M100.96 28.8477V37.2616V45.6755" stroke="white" stroke-width="3"/>
<line x1="93.6115" y1="28.8477" x2="93.6115" y2="45.6755" stroke="white" stroke-width="4"/>
<line x1="96.7859" y1="28.8477" x2="96.7859" y2="45.6755" stroke="white"/>
<line x1="98.6556" y1="28.8477" x2="98.6556" y2="45.6755" stroke="white"/>
<circle cx="83.3281" cy="37.6592" r="28.7486" stroke="white" stroke-width="5"/>
<path d="M121.159 92.148C122.927 94.2694 126.08 94.556 128.201 92.7882C130.322 91.0203 130.609 87.8675 128.841 85.7461L121.159 92.148ZM97.1192 63.3003L121.159 92.148L128.841 85.7461L104.801 56.8984L97.1192 63.3003Z" fill="white"/>
<defs>
<filter id="filter0_d_163_30" x="0" y="0" width="112.974" height="60.0861" filterUnits="userSpaceOnUse" color-interpolation-filters="sRGB">
<feFlood flood-opacity="0" result="BackgroundImageFix"/>
<feColorMatrix in="SourceAlpha" type="matrix" values="0 0 0 0 0 0 0 0 0 0 0 0 0 0 0 0 0 0 127 0" result="hardAlpha"/>
<feOffset dy="4"/>
<feGaussianBlur stdDeviation="2"/>
<feComposite in2="hardAlpha" operator="out"/>
<feColorMatrix type="matrix" values="0 0 0 0 0 0 0 0 0 0 0 0 0 0 0 0 0 0 0.25 0"/>
<feBlend mode="normal" in2="BackgroundImageFix" result="effect1_dropShadow_163_30"/>
<feBlend mode="normal" in="SourceGraphic" in2="effect1_dropShadow_163_30" result="shape"/>
</filter>
</defs>
</svg>
